<svg xmlns="http://www.w3.org/2000/svg" width="24" height="24" fill="currentColor" viewBox="0 0 24 24">
  <g clip-path="url(#a)">
    <path fill-rule="evenodd" d="M24 12c0 6.627-5.373 12-12 12S0 18.627 0 12 5.373 0 12 0s12 5.373 12 12Zm-9.208-4.466c1.637.564 2.835 1.409 2.6 2.981-.171 1.151-.809 1.708-1.656 1.903 1.163.606 1.755 1.535 1.19 3.145-.699 1.999-2.36 2.168-4.572 1.75l-.536 2.149-1.296-.323.53-2.12c-.336-.084-.68-.173-1.034-.268l-.531 2.13-1.295-.323.536-2.154a77.73 77.73 0 0 1-.386-.1c-.177-.046-.356-.093-.537-.138l-1.688-.421.644-1.484s.955.254.942.235c.367.09.53-.149.594-.308l.848-3.399.137.034a1.133 1.133 0 0 0-.135-.043l.605-2.426c.015-.276-.08-.623-.604-.754.02-.014-.942-.234-.942-.234L8.55 5.98l1.788.447-.002.006c.27.067.546.132.828.195l.531-2.129 1.296.323-.52 2.087.02.005c.342.078.684.156 1.018.24l.517-2.074 1.296.323-.53 2.13Zm-4.1 7.721c1.058.28 3.37.89 3.737-.587.377-1.509-1.864-2.012-2.958-2.258a12.815 12.815 0 0 1-.32-.074l-.712 2.854c.072.018.158.04.253.066Zm.999-4.17c.881.236 2.804.75 3.139-.593.342-1.373-1.527-1.787-2.44-1.989a9.868 9.868 0 0 1-.268-.061l-.645 2.588.214.055Z" clip-rule="evenodd"/>
  </g>
  <defs>
    <clipPath id="a">
      <path d="M0 0h24v24H0z"/>
    </clipPath>
  </defs>
</svg>
