<svg xmlns="http://www.w3.org/2000/svg" width="24" height="24" fill="none" viewBox="0 0 24 24">
  <g clip-path="url(#a)">
    <path fill="#F7FCFF" fill-rule="evenodd" stroke="#F7FCFF" stroke-width=".75" d="M0 3h24v18H0V3Z"
      clip-rule="evenodd" />
    <path fill="#E31D1C" fill-rule="evenodd"
      d="M0 14v1.5h24V14H0Zm0 2.75v1.5h24v-1.5H0ZM0 8.5V10h24V8.5H0Zm0 11V21h24v-1.5H0Zm0-8.25v1.5h24v-1.5H0ZM0 3v1.5h24V3H0Zm0 2.75v1.5h24v-1.5H0Z"
      clip-rule="evenodd" />
    <path fill="#2E42A5" stroke="#2E42A5" stroke-width=".75" d="M0 3h15v9.75H0V3Z" />
    <path fill="#F7FCFF" fill-rule="evenodd"
      d="m1.294 5.204-.545.382.184-.68-.484-.43h.632l.212-.555.248.555h.539l-.423.43.163.68-.526-.382Zm3 0-.545.382.184-.68-.483-.43h.631l.212-.555.248.555h.539l-.423.43.163.68-.526-.382Zm2.455.382.545-.383.526.383-.163-.68.423-.43h-.54l-.248-.555-.212.555h-.63l.483.43-.184.68Zm3.545-.383-.545.383.184-.68-.483-.43h.632l.211-.555.248.555h.539l-.423.43.163.68-.526-.383ZM.749 8.587l.545-.383.526.383-.163-.68.423-.43h-.54l-.248-.555-.212.555H.45l.484.43-.184.68Zm3.545-.383-.545.383.184-.68-.483-.43h.631l.212-.555.248.555h.539l-.423.43.163.68-.526-.383Zm2.455.383.545-.383.526.383-.163-.68.423-.43h-.54l-.248-.555-.212.555h-.63l.483.43-.184.68Zm3.545-.383-.545.383.184-.68-.483-.43h.632l.211-.555.248.555h.539l-.423.43.163.68-.526-.383ZM.749 11.587l.545-.383.526.383-.163-.68.423-.43h-.54l-.248-.555-.212.555H.45l.484.43-.184.68Zm3.545-.383-.545.383.184-.68-.483-.43h.631l.212-.555.248.555h.539l-.423.43.163.68-.526-.383Zm2.455.383.545-.383.526.383-.163-.68.423-.43h-.54l-.248-.555-.212.555h-.63l.483.43-.184.68Zm3.545-.383-.545.383.184-.68-.483-.43h.632l.211-.555.248.555h.539l-.423.43.163.68-.526-.383Zm2.455-5.617.545-.383.526.383-.163-.68.423-.43h-.539l-.248-.555-.211.555h-.633l.484.43-.184.68Zm.545 2.617-.545.383.184-.68-.484-.43h.633l.211-.555.248.555h.539l-.423.43.163.68-.526-.383Zm-.545 3.383.545-.383.526.383-.163-.68.423-.43h-.539l-.248-.555-.211.555h-.633l.484.43-.184.68ZM2.794 6.703l-.545.383.184-.68-.484-.43h.632l.212-.555.248.555h.539l-.423.43.163.68-.526-.383Zm2.455.383.545-.383.526.383-.163-.68.423-.43h-.54l-.248-.555-.212.555h-.63l.484.43-.184.68Zm3.545-.383-.545.383.184-.68-.483-.43h.631l.212-.555.248.555h.539l-.423.43.163.68-.526-.383Zm-6.545 3.383.545-.383.526.383-.163-.68.423-.43h-.54l-.248-.555-.212.555h-.63l.484.43-.184.68Zm3.545-.383-.545.383.184-.68-.483-.43h.631l.212-.555.248.555h.539l-.423.43.163.68-.526-.383Zm2.455.383.545-.383.526.383-.163-.68.423-.43h-.54l-.248-.555-.212.555h-.63l.483.43-.184.68Zm3.545-3.383-.545.383.184-.68-.483-.43h.632l.211-.555.248.555h.539l-.423.43.163.68-.526-.383Zm-.545 3.383.545-.383.526.383-.163-.68.423-.43h-.539l-.248-.555-.211.555h-.632l.483.43-.184.68Z"
      clip-rule="evenodd" />
  </g>
  <defs>
    <clipPath id="a">
      <path fill="#fff" d="M0 3h24v18H0z" />
    </clipPath>
  </defs>
</svg>