<svg xmlns="http://www.w3.org/2000/svg" width="24" height="24" fill="none" viewBox="0 0 24 24">
  <g clip-path="url(#a)">
    <mask id="b" width="135" height="28" x="0" y="-3" maskUnits="userSpaceOnUse" style="mask-type:luminance">
      <path fill="#fff" d="M0 0h134.118v24.706H0V0Zm20.514-2.118h-10.1v23.165h10.1V-2.118Z"/>
    </mask>
    <g mask="url(#b)">
      <path fill="#FBBC04" d="M1.059 20.47 11.294 4.236h6.353v2.26L8.823 20.47"/>
    </g>
    <path fill="#1A73E8" d="M17.65 20.47h-6.353V4.236h6.353v16.236Z"/>
    <path fill="#34A853" d="M22.233 15.883a4.588 4.588 0 0 1-4.588 4.588v-9.177a4.588 4.588 0 0 1 4.588 4.589Z"/>
    <path fill="#0D652D" d="M17.647 20.47a4.588 4.588 0 1 1 0-9.176v9.176Z"/>
    <path fill="#1A73E8" d="M21.174 7.765a3.53 3.53 0 0 1-3.53 3.53v-7.06a3.53 3.53 0 0 1 3.53 3.53Z"/>
    <path fill="#174EA6" d="M17.647 11.294a3.53 3.53 0 1 1 0-7.059v7.06Z"/>
    <path fill="#EA4335" d="M1.414 7.412a3.177 3.177 0 1 1 6.354 0 3.177 3.177 0 0 1-6.354 0Z"/>
  </g>
  <defs>
    <clipPath id="a">
      <path fill="#fff" d="M0 0h24v24H0z"/>
    </clipPath>
  </defs>
</svg>
