<svg xmlns="http://www.w3.org/2000/svg" width="24" height="24" fill="none" viewBox="0 0 24 24">
  <rect width="24" height="24" fill="#C4E456" rx="3"/>
  <g clip-path="url(#a)">
    <path fill="#3C402B" d="M12.41 3.769H6.557a.424.424 0 0 0-.424.424v10.402a5.631 5.631 0 0 0 5.622 5.626.424.424 0 0 0 .424-.425V15.02h.227a5.624 5.624 0 0 0 4.044-9.64 5.626 5.626 0 0 0-4.043-1.611h.004Zm-1.083 15.585a4.783 4.783 0 0 1-4.33-4.33h4.33v4.33Zm0-6.555L7.244 4.617h4.09l-.007 8.182Zm1.083 1.372h-.227V4.617h.227a4.778 4.778 0 1 1 0 9.554Z"/>
  </g>
  <defs>
    <clipPath id="a">
      <path fill="#fff" d="M6 3.75h12.375v16.5H6z"/>
    </clipPath>
  </defs>
</svg>
